:SAMPLES-PER-SECOND 30
:FULLY-SPECIFIED
:DEGREES
335
root  6.96591 38.2544 -19.5202 -173.294 -68.7161 162.806
RightUpLeg  -6.17036 1.843 -10.6734
RightLeg  67.5349 3.3595 8.2586
RightFoot  6.07058 -1.58223 10.5969
RightToes  5.47152e-009 0 -3.6325e-017
Spine  6.21697 0.957975 -3.06605
Spine1  12.929 1.71946 -7.23644
HEad  -9.90904 13.7442 -10.1684
LeftShoulder1  -0.334655 4.39388 -31.4597
LeftArm  -6.95172 14.1029 -41.6798
LeftForeArm  31.2033 -5.33908 -6.99577
LeftHand  -0.133894 7.39229 -5.08146
RightShoulder  -0.621932 -5.2821 28.2449
RightArm  14.1362 0.649365 50.4442
RightForeArm  20.8226 4.78101 7.65815
RightHand  -0.0692997 -0.706366 -1.60632
LeftUpLeg  -6.6117 5.42251 -11.9023
LeftLeg  21.0351 7.13977 1.96618
LeftFoot  -5.87597 -0.477128 10.7146
LeftToes  -4.29285e-010 1.49941e-010 2.15559e-012
336
root  5.77889 38.465 -19.8672 -174.378 -70.3369 163.895
RightUpLeg  -10.4637 2.6616 -9.81172
RightLeg  66.6614 2.73509 6.33107
RightFoot  5.59031 -1.22358 8.45742
RightToes  5.47152e-009 0 -3.6325e-017
Spine  6.31375 0.67908 -3.34789
Spine1  12.8481 0.965519 -5.76104
HEad  -9.61898 13.6648 -10.0869
LeftShoulder1  -0.37533 4.5009 -31.5019
LeftArm  -6.97252 14.1055 -42.2692
LeftForeArm  32.1496 -7.48464 -7.13091
LeftHand  -0.0979239 6.69983 -4.62444
RightShoulder  -0.63102 -5.30773 28.259
RightArm  13.7377 -1.94 47.9292
RightForeArm  16.2722 7.54125 7.2595
RightHand  -0.120025 0.0922422 -2.59323
LeftUpLeg  -3.73904 4.97193 -11.0937
LeftLeg  20.1287 6.15422 1.29559
LeftFoot  -7.29992 -0.335277 10.7151
LeftToes  -4.29285e-010 1.49941e-010 2.15559e-012
337
root  4.62479 38.6455 -20.216 -174.796 -72.1579 164.587
RightUpLeg  -14.2306 3.29045 -9.26734
RightLeg  62.8579 2.52044 4.80325
RightFoot  4.02245 -0.980491 7.47152
RightToes  5.47152e-009 0 -3.6325e-017
Spine  6.23958 0.288296 -3.61209
Spine1  12.5836 0.265667 -4.47459
HEad  -9.48901 13.8164 -9.22463
LeftShoulder1  -0.36867 4.49374 -31.0991
LeftArm  -6.14397 13.1424 -43.0111
LeftForeArm  30.0589 -8.70367 -7.35439
LeftHand  -0.0252422 5.1454 -2.57992
RightShoulder  -0.625196 -5.29048 28.2625
RightArm  13.7413 -4.02317 46.031
RightForeArm  12.1632 9.56873 6.85799
RightHand  -0.150635 1.19339 -2.75305
LeftUpLeg  -0.947153 5.1367 -10.1743
LeftLeg  18.6221 4.3359 0.202485
LeftFoot  -8.6229 -0.201453 10.6489
LeftToes  -4.29285e-010 1.49941e-010 2.15559e-012
338
root  3.45959 38.7697 -20.5425 -175.476 -74.5024 165.115
RightUpLeg  -16.0959 3.24948 -9.0584
RightLeg  55.7613 2.69812 3.86479
RightFoot  2.43333 -0.862925 7.27012
RightToes  5.47152e-009 0 -3.6325e-017
Spine  6.71915 -0.283614 -3.49377
Spine1  12.1662 -0.521065 -3.5242
HEad  -9.61429 15.1261 -8.6287
LeftShoulder1  -0.41635 4.61881 -31.1904
LeftArm  -3.06375 12.1645 -42.7595
LeftForeArm  26.6179 -11.2984 -7.48699
LeftHand  -0.00919143 4.31159 -1.60849
RightShoulder  -0.610863 -5.26365 27.9729
RightArm  13.642 -5.85846 44.9275
RightForeArm  9.9219 11.0269 6.4286
RightHand  -0.215101 2.02937 -3.55578
LeftUpLeg  2.14638 5.39041 -9.28848
LeftLeg  17.4411 1.80543 -0.559865
LeftFoot  -9.88106 -0.0771332 10.7193
LeftToes  -4.29285e-010 1.49941e-010 2.15559e-012
339
root  2.29754 38.8288 -20.8811 -175.575 -76.6963 165.24
RightUpLeg  -16.9514 3.17379 -9.02875
RightLeg  45.9655 2.75993 2.75925
RightFoot  1.43055 -0.792772 7.17341
RightToes  5.47152e-009 0 -3.6325e-017
Spine  6.6016 -0.614359 -3.02501
Spine1  12.2433 -0.803622 -3.13862
HEad  -9.29516 13.9366 -7.55957
LeftShoulder1  -0.34623 4.44239 -30.7577
LeftArm  1.30557 11.8111 -43.0207
LeftForeArm  21.6381 -15.931 -6.3081
LeftHand  -0.0320865 5.41847 -2.34075
RightShoulder  -0.68748 -5.46425 28.3851
RightArm  13.8775 -6.5398 43.6857
RightForeArm  10.1641 11.2396 6.34777
RightHand  -0.18264 1.28291 -3.31216
LeftUpLeg  4.79325 5.67529 -8.46049
LeftLeg  16.6451 -0.667671 -1.04634
LeftFoot  -11.1725 0.0511736 11.0028
LeftToes  -4.29285e-010 1.49941e-010 2.15559e-012
340
root  1.12109 38.8065 -21.2462 -173.661 -78.6417 163.631
RightUpLeg  -16.9963 2.64078 -9.51134
RightLeg  34.1129 2.75322 1.80465
RightFoot  0.536359 -0.816779 7.86761
RightToes  5.47152e-009 0 -3.6325e-017
Spine  6.14575 -0.810776 -2.95968
Spine1  12.2298 -0.977014 -2.59067
HEad  -8.44008 11.5669 -6.40119
LeftShoulder1  -0.333612 4.41051 -30.6555
LeftArm  4.06936 10.6185 -43.0914
LeftForeArm  17.8921 -19.0934 -5.10809
LeftHand  -0.0554428 5.86733 -2.11617
RightShoulder  -0.714153 -5.52527 28.6616
RightArm  13.2987 -6.84914 42.9063
RightForeArm  11.1247 10.4167 6.32917
RightHand  -0.164868 1.34837 -2.97668
LeftUpLeg  6.85664 5.85123 -7.9392
LeftLeg  16.3095 -2.80055 -1.36363
LeftFoot  -12.7026 0.209051 11.135
LeftToes  -4.29285e-010 1.49941e-010 2.15559e-012
341
root  -0.0898307 38.7677 -21.6218 -170.184 -80.5472 160.286
RightUpLeg  -15.7021 1.41623 -10.0676
RightLeg  20.7927 3.53045 1.14824
RightFoot  0.973316 -0.888577 8.28409
RightToes  5.47152e-009 0 -3.6325e-017
Spine  5.63519 -0.977908 -2.72359
Spine1  12.3904 -1.062 -2.23216
HEad  -8.07461 10.4154 -5.82208
LeftShoulder1  -0.341918 4.43686 -30.495
LeftArm  5.6484 9.44074 -42.9757
LeftForeArm  15.5095 -22.1365 -4.29963
LeftHand  -0.0288682 3.63371 1.05509
RightShoulder  -0.671049 -5.41555 28.4041
RightArm  12.242 -7.28372 43.016
RightForeArm  12.5135 9.1001 6.24562
RightHand  -0.14656 0.709669 -2.87738
LeftUpLeg  9.36042 6.22148 -7.22652
LeftLeg  15.5625 -5.16319 -1.8956
LeftFoot  -14.1074 0.356198 11.1786
LeftToes  -4.29285e-010 1.49941e-010 2.15559e-012
342
root  -1.32004 38.7034 -21.9937 -164.263 -82.2309 154.58
RightUpLeg  -14.0694 -1.91632 -9.88021
RightLeg  7.93346 8.36529 -0.329548
RightFoot  0.85524 -0.951475 8.94775
RightToes  5.47152e-009 0 -3.6325e-017
Spine  5.10377 -1.07548 -2.35198
Spine1  12.4146 -1.0676 -1.90993
HEad  -7.63675 9.62213 -5.51837
LeftShoulder1  -0.400212 4.5908 -30.6765
LeftArm  4.35607 8.22788 -42.4606
LeftForeArm  16.296 -24.6512 -4.37345
LeftHand  -0.0423357 3.58109 1.54353
RightShoulder  -0.630904 -5.30944 28.2182
RightArm  11.8379 -7.52195 43.0921
RightForeArm  13.679 7.64991 6.23517
RightHand  -0.133968 0.734824 -2.61976
LeftUpLeg  12.0194 6.50557 -6.53888
LeftLeg  14.3198 -7.60809 -2.38366
LeftFoot  -15.2106 0.476318 11.3512
LeftToes  -4.29285e-010 1.49941e-010 2.15559e-012
343
root  -2.57471 38.5625 -22.3866 -155.645 -83.5665 146.033
RightUpLeg  -13.2087 -7.9587 -8.61913
RightLeg  -0.688857 16.9096 -2.99945
RightFoot  -0.173696 -0.909668 9.25328
RightToes  5.47152e-009 0 -3.6325e-017
Spine  4.47637 -0.93798 -1.70739
Spine1  12.9558 -0.749308 -2.03295
HEad  -7.51779 8.81353 -5.50316
LeftShoulder1  -0.37335 4.52718 -30.3414
LeftArm  1.8916 7.16055 -42.5404
LeftForeArm  18.3247 -26.8348 -4.78776
LeftHand  -0.0545716 3.08179 1.97898
RightShoulder  -0.697339 -5.49018 28.4312
RightArm  10.99 -7.73392 43.1676
RightForeArm  14.9568 7.13197 5.88863
RightHand  -0.111505 0.469114 -2.26694
LeftUpLeg  14.6044 6.58027 -5.9935
LeftLeg  13.5511 -9.54006 -2.45309
LeftFoot  -16.7067 0.626363 11.18
LeftToes  -4.29285e-010 1.49941e-010 2.15559e-012
344
root  -3.85634 38.3576 -22.8348 -145.122 -85.0824 135.364
RightUpLeg  -12.9591 -8.59036 -8.78214
RightLeg  -1.96053 15.9397 -2.56952
RightFoot  -1.20651 -0.780736 8.71935
RightToes  5.47152e-009 0 -3.6325e-017
Spine  4.63372 -0.986175 -0.813817
Spine1  12.7812 -0.679365 -2.27264
HEad  -7.30439 8.35635 -5.67551
LeftShoulder1  -0.38101 4.55088 -30.2423
LeftArm  -0.0945369 6.57143 -42.2122
LeftForeArm  19.4993 -28.6199 -5.12833
LeftHand  -0.0640225 2.37034 2.04641
RightShoulder  -0.702308 -5.49562 28.5847
RightArm  10.8941 -7.81109 43.1435
RightForeArm  14.4116 6.71781 5.87483
RightHand  -0.140362 0.793125 -2.73161
LeftUpLeg  16.8973 6.42955 -5.05436
LeftLeg  13.9456 -11.3194 -2.35227
LeftFoot  -18.5543 0.794169 10.7953
LeftToes  -4.29285e-010 1.49941e-010 2.15559e-012
345
root  -5.14709 38.1915 -23.3061 -133.291 -86.5289 123.817
RightUpLeg  -13.7501 -8.28697 -8.19411
RightLeg  2.20491 12.1921 -1.28615
RightFoot  3.31742 -1.07817 8.4901
RightToes  5.47152e-009 0 -3.6325e-017
Spine  4.14534 -0.999821 0.358982
Spine1  13.2266 -0.773158 -1.80521
HEad  -7.20906 8.54858 -6.50501
LeftShoulder1  -0.371245 4.51604 -30.5371
LeftArm  -2.01023 6.42497 -41.8653
LeftForeArm  19.7109 -29.9475 -5.42716
LeftHand  -0.0864237 1.76647 2.44599
RightShoulder  -0.71411 -5.52055 28.7398
RightArm  11.0856 -7.05238 43.0204
RightForeArm  14.4169 6.3872 5.96638
RightHand  -0.11539 0.345037 -2.37779
LeftUpLeg  18.3326 4.99724 -4.11624
LeftLeg  14.8957 -11.2905 -1.9397
LeftFoot  -20.1159 0.879222 9.8631
LeftToes  -4.29285e-010 1.49941e-010 2.15559e-012
346
root  -6.47651 38.071 -23.7751 -109.159 -88.1632 99.6868
RightUpLeg  -14.1494 -7.32589 -7.66766
RightLeg  6.7403 10.7131 -0.126487
RightFoot  9.9914 -1.44342 8.02339
RightToes  5.47152e-009 0 -3.6325e-017
Spine  4.07698 -1.20281 2.06611
Spine1  13.2298 -0.969122 -1.56423
HEad  -7.00601 8.81735 -7.18374
LeftShoulder1  -0.346597 4.44342 -30.7234
LeftArm  -2.78918 6.90927 -41.4627
LeftForeArm  18.5117 -30.6685 -5.66684
LeftHand  -0.155724 1.51348 4.52938
RightShoulder  -0.73146 -5.56421 28.841
RightArm  11.2169 -6.24522 42.9185
RightForeArm  14.6355 6.45901 6.02462
RightHand  -0.0883916 0.209838 -1.86655
LeftUpLeg  19.603 1.15001 -3.66593
LeftLeg  16.6533 -9.13371 -1.67046
LeftFoot  -21.0315 0.807161 8.02151
LeftToes  -4.29285e-010 1.49941e-010 2.15559e-012
